<?xml version="1.0" standalone="no"?>
<!DOCTYPE svg PUBLIC "-//W3C//DTD SVG 20010904//EN"
 "http://www.w3.org/TR/2001/REC-SVG-20010904/DTD/svg10.dtd">
<svg version="1.0" xmlns="http://www.w3.org/2000/svg"
 width="726.000000pt" height="726.000000pt" viewBox="0 0 726.000000 726.000000"
 preserveAspectRatio="xMidYMid meet">
<metadata>
Created by potrace 1.14, written by Peter Selinger 2001-2017
</metadata>
<g transform="translate(0.000000,726.000000) scale(0.100000,-0.100000)"
fill="#000000" stroke="none">
<path d="M1709 6423 c16 -32 272 -532 570 -1112 l541 -1054 0 -118 0 -119 -55
0 -55 0 0 -195 0 -195 55 0 55 0 0 -300 0 -300 220 0 220 0 0 300 0 300 280 0
280 0 0 -1530 0 -1530 220 0 220 0 0 1530 0 1530 555 0 555 0 0 195 0 195
-1055 0 -1055 0 0 114 0 114 536 1048 c295 577 551 1079 570 1117 l34 67 -228
0 -229 0 -363 -732 c-223 -450 -393 -806 -441 -923 -59 -146 -81 -191 -96
-193 -16 -2 -28 22 -78 155 -43 113 -168 376 -442 926 l-383 767 -230 0 -230
0 29 -57z"/>
</g>
</svg>
